Coordinates
version=1
nRows=13
nColumns=40
inDegrees=yes

Units are S.I. units (second, meters, Newtons, ...)
Angles are in degrees.

endheader
time	pelvis_tilt	pelvis_list	pelvis_rotation	pelvis_tx	pelvis_ty	pelvis_tz	hip_flexion_r	hip_adduction_r	hip_rotation_r	knee_angle_r	knee_angle_r_beta	ankle_angle_r	subtalar_angle_r	mtp_angle_r	hip_flexion_l	hip_adduction_l	hip_rotation_l	knee_angle_l	knee_angle_l_beta	ankle_angle_l	subtalar_angle_l	mtp_angle_l	lumbar_extension	lumbar_bending	lumbar_rotation	arm_flex_r	arm_add_r	arm_rot_r	elbow_flex_r	pro_sup_r	wrist_flex_r	wrist_dev_r	arm_flex_l	arm_add_l	arm_rot_l	elbow_flex_l	pro_sup_l	wrist_flex_l	wrist_dev_l
     23.92400000	     -3.76290594	     -4.40972173	    -15.02437866	      0.97874818	      0.93270909	      0.39750922	     21.34606594	     -1.50451676	     -6.75996146	     13.78487001	     13.78487001	      4.12667481	     12.64325505	      4.96289321	      6.91705457	     -2.15224938	    -14.92526060	     17.49495224	     17.49495224	     15.57112292	    -13.61120721	     -1.45815188	     -9.65037126	      6.94607256	      1.70404887	    -17.46231222	    -11.55172605	     -2.30565423	     30.08324828	     46.18139664	      0.00000000	      0.00000000	     26.72754451	    -17.56963129	    -10.08740796	     80.68291373	     47.91934907	      0.00000000	      0.00000000
     23.94800000	     -3.82868249	     -4.12018418	    -15.37853545	      0.97868554	      0.93171874	      0.39982192	     21.51283887	     -1.38701660	     -7.15666111	     12.55688213	     12.55688213	      3.72226384	     14.34139025	      7.00266157	      6.40459876	     -1.90732809	    -15.50599527	     17.00602456	     17.00602456	     15.48265881	    -13.34338876	     -2.59792479	     -9.51859000	      6.65044398	      1.50269267	    -17.67530009	    -11.53688384	     -1.95430345	     30.31101802	     46.13674747	      0.00000000	      0.00000000	     26.95055479	    -17.79449630	    -11.26584029	     82.84949339	     48.05060302	      0.00000000	      0.00000000
     23.97200000	     -3.80057725	     -3.84869387	    -15.67310621	      0.97895308	      0.93083344	      0.40222510	     21.58381477	     -1.25606768	     -7.11465478	     11.88992549	     11.88992549	      3.07401832	     14.93608273	      7.42915694	      5.80992744	     -1.62644431	    -15.89172518	     16.59082583	     16.59082583	     15.61674806	    -13.16251114	     -2.96016564	     -9.51495392	      6.40574927	      1.63238799	    -17.95182979	    -11.52901234	     -1.79339604	     30.23666225	     46.12364706	      0.00000000	      0.00000000	     27.67820349	    -17.83811237	    -11.77675136	     84.11816967	     48.11639621	      0.00000000	      0.00000000
     23.99600000	     -3.77987565	     -3.50261001	    -15.91971134	      0.97963401	      0.92987850	      0.40465752	     21.83128335	     -1.27742712	     -6.92293532	     12.04648154	     12.04648154	      2.66054140	     15.02432757	      7.11656749	      5.17436806	     -1.25416506	    -16.28645376	     16.08433444	     16.08433444	     15.75274588	    -12.82575168	     -3.41430608	     -9.41547986	      6.14203693	      1.66704491	    -18.17069825	    -11.63657272	     -1.69500451	     30.24265774	     46.11224649	      0.00000000	      0.00000000	     28.15466698	    -17.82706590	    -12.44628521	     85.63171762	     48.19548829	      0.00000000	      0.00000000
     24.02000000	     -3.87381337	     -3.30747738	    -16.05222145	      0.98064158	      0.92887934	      0.40723393	     21.93657811	     -1.17562585	     -6.84154053	     12.25862984	     12.25862984	      2.43602491	     14.92348163	      7.03963940	      4.78434656	     -1.10430176	    -16.38107708	     15.94028183	     15.94028183	     16.07630742	    -12.82735313	     -3.55626294	     -9.12473651	      6.10898009	      1.55044300	    -18.30037069	    -11.82332579	     -1.71544943	     30.19672139	     46.11443405	      0.00000000	      0.00000000	     28.71050872	    -17.99953739	    -12.61721579	     86.02418197	     48.21789002	      0.00000000	      0.00000000
     24.04400000	     -3.73170534	     -2.83666482	    -16.19303180	      0.98224660	      0.92790535	      0.40994947	     22.07797664	     -1.38433366	     -6.00105889	     13.12145529	     13.12145529	      1.23182909	     13.62977967	      1.95324513	      3.82905250	     -0.51186835	    -16.76688695	     15.04390327	     15.04390327	     15.81771404	    -12.44114387	     -4.71809234	     -9.11819368	      5.70507693	      0.81200034	    -17.93756346	    -12.25550243	     -1.09027236	     30.25332286	     46.06228964	      0.00000000	      0.00000000	     28.14159272	    -18.13196501	    -14.89657674	     89.49154298	     48.44596194	      0.00000000	      0.00000000
     24.06800000	     -3.70576086	     -2.59317065	    -16.22941435	      0.98397982	      0.92715843	      0.41279527	     22.22601653	     -1.45643995	     -5.59039894	     14.23982622	     14.23982622	      1.52174158	     12.73191117	      1.32956208	      3.11072301	     -0.22896587	    -16.85261202	     14.54344092	     14.54344092	     16.05689544	    -12.15784531	     -4.72152741	     -8.97190264	      5.63590447	      0.92866054	    -18.06145349	    -12.56077628	     -1.06139331	     30.15274634	     46.06313595	      0.00000000	      0.00000000	     28.76129933	    -18.06333010	    -15.06873225	     90.17864892	     48.47544895	      0.00000000	      0.00000000
     24.09200000	     -3.70126361	     -2.30730851	    -16.26142091	      0.98591413	      0.92646212	      0.41595240	     22.37488080	     -1.52610575	     -4.80757835	     15.42999004	     15.42999004	      1.93315297	     11.41091049	      0.39518004	      2.37333690	      0.08744580	    -16.93136345	     13.96554955	     13.96554955	     16.25161538	    -11.84037984	     -4.66248863	     -8.77613998	      5.49709653	      1.02281912	    -18.15728974	    -12.79538813	     -1.04534193	     30.11165570	     46.06232430	      0.00000000	      0.00000000	     29.13388139	    -17.88094521	    -15.38777811	     91.12029586	     48.51828799	      0.00000000	      0.00000000
     24.11600000	     -3.76459241	     -2.18503561	    -16.19415949	      0.98794384	      0.92594164	      0.41936705	     22.22504089	     -1.33821369	     -3.77073598	     16.04531480	     16.04531480	      1.68351849	      9.41821867	     -1.96845111	      1.72146158	      0.17771445	    -16.84378442	     13.51463575	     13.51463575	     16.48361052	    -11.60019134	     -4.45495527	     -8.62252002	      5.54521470	      0.59369544	    -17.93505144	    -13.20760729	     -0.93514268	     30.19982264	     46.04958426	      0.00000000	      0.00000000	     28.92189774	    -17.92179037	    -16.52638812	     92.93697517	     48.63482251	      0.00000000	      0.00000000
     24.14000000	     -3.79751007	     -2.09607610	    -16.08081468	      0.98998121	      0.92560839	      0.42295835	     22.16039343	     -1.27091655	     -3.36931142	     16.98714371	     16.98714371	      2.25207392	      8.50019299	     -2.54782398	      1.03825462	      0.20929008	    -16.83666653	     13.07956774	     13.07956774	     16.64574933	    -11.33334836	     -4.32673762	     -8.49704261	      5.60595955	      0.59527407	    -17.90409743	    -13.43022344	     -0.90162947	     30.13037969	     46.05002700	      0.00000000	      0.00000000	     29.30593482	    -17.82047990	    -16.67527395	     93.46279163	     48.65886822	      0.00000000	      0.00000000
     24.16400000	     -4.00391217	     -2.20256093	    -15.85625318	      0.99186144	      0.92543293	      0.42680525	     21.92417658	     -0.99635700	     -3.32942076	     17.35214088	     17.35214088	      2.74185659	      8.11957530	     -2.80558817	      0.62534925	     -0.08984872	    -16.61503636	     12.90087957	     12.90087957	     16.73438746	    -11.18116059	     -4.26871196	     -8.21801754	      5.84515785	      0.49886576	    -17.85103941	    -13.66618343	     -0.92813342	     30.11815333	     46.05295340	      0.00000000	      0.00000000	     29.61958875	    -17.78166049	    -16.70077908	     93.71308973	     48.66774035	      0.00000000	      0.00000000
     24.18800000	     -3.99432953	     -2.27241885	    -15.66478997	      0.99363703	      0.92562497	      0.43101953	     21.69240685	     -0.67186937	     -2.61459276	     18.07206339	     18.07206339	      3.28176293	      6.48165856	     -3.10503533	     -0.15688712	     -0.27274569	    -16.54956904	     12.41151736	     12.41151736	     16.80612919	    -10.80139775	     -3.90558845	     -8.30598115	      5.88756599	      0.53999372	    -17.70327567	    -13.79428295	     -0.90880426	     30.12271166	     46.05203254	      0.00000000	      0.00000000	     29.87784530	    -17.64100462	    -16.95252682	     94.50248637	     48.70356070	      0.00000000	      0.00000000
     24.21200000	     -4.13801433	     -2.52303574	    -15.35526059	      0.99519801	      0.92592420	      0.43538705	     21.28332998	     -0.17148289	     -2.33578079	     18.21140876	     18.21140876	      3.69660707	      5.46308691	     -3.20383959	     -0.64498880	     -0.78260629	    -16.39818000	     12.24759008	     12.24759008	     16.91270246	    -10.47167112	     -3.56362282	     -8.26997941	      6.14206587	      0.37826722	    -17.48417342	    -13.91138277	     -0.88088576	     30.15083222	     46.04996331	      0.00000000	      0.00000000	     29.98583798	    -17.62326834	    -17.10812078	     95.00430038	     48.72767180	      0.00000000	      0.00000000
